
<?xml version="1.0" standalone="no"?>
<!DOCTYPE svg PUBLIC "-//W3C//DTD SVG 20010904//EN"
 "http://www.w3.org/TR/2001/REC-SVG-20010904/DTD/svg10.dtd">
<svg version="1.0" xmlns="http://www.w3.org/2000/svg"
 width="194.000000pt" height="28.000000pt" viewBox="0 0 394.000000 128.000000"
 preserveAspectRatio="xMidYMid meet">
<metadata>
Created by potrace 1.15, written by Peter Selinger 2001-2017
</metadata>
<g transform="translate(0.000000,128.000000) scale(0.100000,-0.100000)"
fill="#000000" stroke="none">
<path d="M1401 1267 c-9 -11 21 -67 150 -278 89 -145 165 -268 169 -273 5 -5
36 33 71 88 34 53 64 96 68 96 3 0 35 -44 70 -97 46 -70 66 -92 71 -82 5 8 81
131 169 274 142 231 158 261 143 273 -13 10 -18 10 -23 0 -96 -163 -289 -473
-297 -476 -6 -2 -33 31 -61 74 -48 74 -49 78 -34 101 13 19 13 27 4 36 -10 9
-16 8 -27 -7 -14 -20 -14 -20 -28 0 -12 15 -17 17 -28 6 -10 -10 -10 -17 0
-32 6 -11 12 -24 12 -30 0 -12 -100 -163 -105 -158 -2 2 -69 111 -150 243 -80
132 -150 244 -154 248 -4 4 -13 2 -20 -6z"/>
<path d="M3220 1125 c0 -80 -2 -145 -5 -145 -3 0 -19 10 -35 22 -19 13 -48 23
-82 25 -95 7 -168 -60 -168 -152 0 -122 143 -198 244 -130 44 30 46 30 46 5 0
-11 7 -20 15 -20 13 0 15 37 15 270 0 233 -2 270 -15 270 -13 0 -15 -23 -15
-145z m-64 -150 c33 -21 56 -79 48 -120 -10 -53 -63 -95 -120 -95 -39 0 -51 5
-80 34 -100 100 31 257 152 181z"/>
<path d="M3900 1124 l0 -145 -31 22 c-122 86 -287 -19 -249 -160 14 -54 43
-87 95 -107 56 -21 105 -14 151 21 l34 26 0 -25 c0 -19 5 -26 20 -26 20 0 20
7 20 270 0 263 0 270 -20 270 -19 0 -20 -7 -20 -146z m-48 -162 c59 -59 44
-153 -30 -188 -47 -22 -98 -12 -137 26 -56 56 -35 158 40 191 36 16 96 3 127
-29z"/>
<path d="M513 858 c-127 -211 -293 -488 -371 -615 l-141 -233 751 0 c599 0
749 3 741 13 -5 6 -58 73 -116 149 -59 75 -107 138 -107 141 0 3 14 7 31 9
l31 3 -121 152 c-67 84 -121 155 -121 158 0 3 14 5 30 5 17 0 30 3 30 6 0 3
-52 73 -115 155 -63 82 -115 152 -115 154 0 3 11 5 25 5 14 0 25 2 25 5 0 6
-219 275 -224 275 -2 0 -107 -172 -233 -382z m312 227 c36 -44 65 -82 65 -86
0 -3 -11 -4 -25 -1 -14 2 -25 2 -25 -2 0 -3 52 -72 115 -153 63 -82 115 -151
115 -155 0 -5 -13 -8 -30 -8 -16 0 -30 -2 -30 -5 0 -3 54 -73 121 -157 l121
-153 -31 -3 c-17 -2 -31 -5 -31 -7 0 -3 52 -71 115 -152 l114 -148 -146 -3
c-109 -2 -150 1 -158 10 -25 27 -510 844 -510 859 0 20 137 249 148 246 4 -1
37 -38 72 -82z m-1 -618 c135 -224 246 -410 246 -413 0 -2 -38 -4 -84 -4 l-84
0 -162 282 c-90 156 -164 284 -165 286 -1 2 -76 -126 -166 -283 l-163 -285
-87 0 -87 0 116 193 c260 434 384 638 387 635 1 -2 113 -187 249 -411z m-178
-184 c38 -115 70 -214 72 -220 3 -10 -31 -13 -146 -13 l-150 0 71 220 c40 120
75 219 78 220 3 0 37 -93 75 -207z m-205 -55 l-58 -173 -47 -3 -48 -3 36 63
c20 35 64 113 99 175 34 62 65 113 69 113 3 0 -19 -78 -51 -172z m314 -2 c52
-91 95 -168 95 -171 0 -3 -19 -5 -43 -5 l-42 0 -55 163 c-60 177 -65 195 -56
186 4 -4 49 -81 101 -173z"/>
<path d="M2674 1029 c-77 -23 -128 -113 -106 -188 17 -55 46 -87 97 -106 78
-30 162 3 195 78 25 54 25 81 -1 133 -33 69 -114 105 -185 83z m127 -68 c33
-32 39 -45 39 -80 0 -33 -7 -49 -34 -79 -31 -33 -39 -37 -85 -37 -44 0 -55 4
-83 33 -29 28 -33 39 -33 83 0 46 4 54 37 85 30 27 46 34 79 34 35 0 48 -6 80
-39z"/>
<path d="M2289 1008 c-73 -42 -99 -135 -58 -208 43 -76 151 -104 219 -57 55
37 75 72 75 132 0 60 -20 95 -75 133 -43 29 -112 29 -161 0z m144 -30 c24 -13
57 -68 57 -96 0 -40 -28 -90 -59 -106 -112 -59 -226 56 -161 162 34 55 102 72
163 40z"/>
<path d="M3340 875 l0 -155 110 0 c103 0 110 1 110 20 0 19 -7 20 -90 20 l-90
0 0 45 0 45 70 0 c63 0 70 2 70 20 0 18 -7 20 -70 20 l-70 0 0 50 0 50 85 0
c78 0 85 2 85 20 0 19 -7 20 -105 20 l-105 0 0 -155z"/>
<path d="M1600 312 c0 -275 0 -282 20 -282 19 0 20 7 20 233 l0 232 83 -85
c45 -47 151 -157 235 -245 l152 -160 0 283 c0 265 -1 283 -17 280 -17 -3 -18
-22 -18 -231 0 -125 -3 -227 -6 -227 -4 0 -89 87 -189 193 -101 105 -205 214
-232 242 l-48 50 0 -283z"/>
<path d="M3900 425 l0 -146 -37 26 c-104 70 -245 -4 -245 -129 0 -81 54 -143
132 -153 51 -7 82 1 119 33 l31 26 0 -24 c0 -30 7 -38 26 -31 12 4 14 53 14
274 0 262 0 269 -20 269 -19 0 -20 -7 -20 -145z m-43 -169 c76 -83 11 -208
-100 -193 -79 11 -127 93 -93 163 38 81 133 96 193 30z"/>
<path d="M2913 468 c-11 -24 -37 -87 -59 -140 -21 -54 -43 -96 -48 -95 -5 2
-20 31 -34 66 l-25 63 -69 -162 c-53 -124 -67 -165 -57 -171 7 -4 16 -6 19 -4
4 2 28 56 55 120 26 64 51 112 55 108 4 -4 26 -55 49 -113 47 -116 56 -129 72
-113 7 7 2 30 -16 76 l-27 66 53 126 c29 69 55 122 59 118 4 -5 46 -95 95
-200 48 -106 91 -193 94 -193 35 1 27 25 -78 249 -60 128 -111 235 -114 238
-3 2 -14 -15 -24 -39z"/>
<path d="M2290 308 c-55 -38 -75 -73 -75 -133 0 -60 20 -95 75 -132 93 -64
240 15 240 130 0 119 -144 200 -240 135z m123 -22 c45 -19 68 -48 74 -94 13
-96 -87 -163 -176 -117 -31 15 -61 69 -61 107 0 35 37 87 73 103 41 18 50 18
90 1z"/>
<path d="M3340 184 c-39 -75 -72 -141 -73 -147 -1 -6 6 -12 15 -15 12 -2 23
10 38 37 l20 41 73 0 73 0 22 -45 c16 -32 26 -43 37 -38 10 3 14 12 10 22 -16
44 -131 280 -137 281 -3 0 -38 -61 -78 -136z"/>
</g>
</svg>
